<svg width="30" height="30" viewBox="0 0 30 30" fill="none" xmlns="http://www.w3.org/2000/svg">
<path d="M22.9102 29.1211V2.63672L20.2734 0L18.5156 1.75781L16.7578 0L15 1.75781L13.2422 0L11.4844 1.75781L9.72656 0L7.96875 1.75781L6.21094 0L3.57422 2.63672V25.6066C3.57422 28.0295 5.5459 30 7.96875 30H23.0613C22.9635 29.7252 22.9102 29.4293 22.9102 29.1211ZM19.3945 22.9688H7.08984V21.2109H19.3945V22.9688ZM14.1211 14.1797V15.9375H8.84766V14.1797H14.1211ZM8.84766 12.4219V10.6641H14.1211V12.4219H8.84766ZM14.1211 17.6953V19.4531H8.84766V17.6953H14.1211ZM17.6367 14.1797V15.9375H15.8789V14.1797H17.6367ZM15.8789 12.4219V10.6641H17.6367V12.4219H15.8789ZM17.6367 17.6953V19.4531H15.8789V17.6953H17.6367ZM19.3945 8.90625H7.08984V7.14844H19.3945V8.90625Z" fill="white"/>
<path d="M24.668 22.9688V29.1211C24.668 29.6065 25.0615 30 25.5469 30C26.0323 30 26.4258 29.6065 26.4258 29.1211V22.9688H24.668Z" fill="white"/>
</svg>
