<svg width="30" height="30" viewBox="0 0 30 30" fill="none" xmlns="http://www.w3.org/2000/svg">
<path d="M25.228 0H4.77307C4.01988 0 3.40967 0.610851 3.40967 1.36404V28.6366C3.40967 29.3898 4.02052 30.0006 4.77307 30.0006H25.228C25.9812 30.0006 26.5914 29.3898 26.5914 28.6366V1.36404C26.5914 0.610851 25.9812 0 25.228 0ZM23.8639 2.72681V6.81766H6.13648V2.72681H23.8639ZM6.13648 27.2738V9.54511H23.8639V27.2719H6.13648V27.2738Z" fill="white"/>
<path d="M11.0126 10.7515H8.1817C7.80511 10.7515 7.5 11.0572 7.5 11.4332V14.2659C7.5 14.6425 7.80574 14.9476 8.1817 14.9476H11.0126C11.3891 14.9476 11.6943 14.6419 11.6943 14.2659V11.4332C11.6949 11.0559 11.3904 10.7515 11.0126 10.7515Z" fill="white"/>
<path d="M16.415 10.7515H13.5848C13.2082 10.7515 12.9031 11.0572 12.9031 11.4332V14.2659C12.9031 14.6425 13.2082 14.9476 13.5848 14.9476H16.415C16.7916 14.9476 17.0967 14.6419 17.0967 14.2659V11.4332C17.0973 11.0559 16.7916 10.7515 16.415 10.7515Z" fill="white"/>
<path d="M21.8181 10.7515H18.9872C18.6106 10.7515 18.3062 11.0572 18.3062 11.4332V14.2659C18.3062 14.6425 18.6113 14.9476 18.9872 14.9476H21.8181C22.1947 14.9476 22.4998 14.6419 22.4998 14.2659V11.4332C22.4998 11.0559 22.1947 10.7515 21.8181 10.7515Z" fill="white"/>
<path d="M11.0126 16.3118H8.1817C7.80511 16.3118 7.5 16.6169 7.5 16.9928V19.8256C7.5 20.2022 7.80574 20.5067 8.1817 20.5067H11.0126C11.3891 20.5067 11.6943 20.2016 11.6943 19.8256V16.9928C11.6949 16.6156 11.3904 16.3118 11.0126 16.3118Z" fill="white"/>
<path d="M16.415 16.3118H13.5848C13.2082 16.3118 12.9031 16.6169 12.9031 16.9928V19.8256C12.9031 20.2022 13.2082 20.5067 13.5848 20.5067H16.415C16.7916 20.5067 17.0967 20.2016 17.0967 19.8256V16.9928C17.0973 16.6156 16.7916 16.3118 16.415 16.3118Z" fill="white"/>
<path d="M11.0126 21.8718H8.1817C7.80511 21.8718 7.5 22.1769 7.5 22.5523V25.385C7.5 25.7629 7.80574 26.0667 8.1817 26.0667H11.0126C11.3891 26.0667 11.6943 25.761 11.6943 25.385V22.5523C11.6949 22.1757 11.3904 21.8718 11.0126 21.8718Z" fill="white"/>
<path d="M16.415 21.8718H13.5848C13.2082 21.8718 12.9031 22.1769 12.9031 22.5523V25.385C12.9031 25.7629 13.2082 26.0667 13.5848 26.0667H16.415C16.7916 26.0667 17.0967 25.761 17.0967 25.385V22.5523C17.0973 22.1757 16.7916 21.8718 16.415 21.8718Z" fill="white"/>
<path d="M21.8181 16.3118H18.9872C18.6106 16.3118 18.3062 16.6169 18.3062 16.9928V25.3852C18.3062 25.763 18.6113 26.0669 18.9872 26.0669H21.8181C22.1947 26.0669 22.4998 25.7611 22.4998 25.3852V16.9928C22.4998 16.6156 22.1947 16.3118 21.8181 16.3118Z" fill="white"/>
</svg>
