<svg width="30" height="30" viewBox="0 0 30 30" fill="none" xmlns="http://www.w3.org/2000/svg">
<path d="M24.6034 13.0737H24.1622V9.16529C24.1622 4.1135 20.0549 0 14.9969 0C9.94516 0 5.83165 4.10729 5.83165 9.16529C5.83165 9.63132 6.20448 10.0041 6.67051 10.0041C7.13654 10.0041 7.50937 9.63132 7.50937 9.16529C7.50937 5.03935 10.8648 1.67771 14.9969 1.67771C19.1229 1.67771 22.4845 5.03314 22.4845 9.16529V13.0737H5.39669C4.50191 13.0737 3.7749 13.8007 3.7749 14.6955V25.1408C3.7749 27.819 5.95593 30 8.63406 30H21.366C24.0442 30 26.2252 27.819 26.2252 25.1408V14.6955C26.2252 13.8007 25.4982 13.0737 24.6034 13.0737ZM24.5475 25.1408C24.5475 26.8931 23.1245 28.3223 21.366 28.3223H8.64027C6.88799 28.3223 5.45883 26.8993 5.45883 25.1408V14.7514H24.5475V25.1408Z" fill="#FFFDFD"/>
<path d="M15.0032 24.7991C16.7368 24.7991 18.1411 23.3886 18.1411 21.6611C18.1411 19.9275 16.7306 18.5232 15.0032 18.5232C13.2695 18.5232 11.8652 19.9337 11.8652 21.6611C11.8652 23.3886 13.2695 24.7991 15.0032 24.7991ZM15.0032 20.1947C15.811 20.1947 16.4634 20.8533 16.4634 21.6549C16.4634 22.4565 15.811 23.1214 15.0032 23.1214C14.1954 23.1214 13.5429 22.4627 13.5429 21.6611C13.5429 20.8596 14.1954 20.1947 15.0032 20.1947Z" fill="#FFFDFD"/>
</svg>
