<svg width="30" height="30" viewBox="0 0 30 30" fill="none" xmlns="http://www.w3.org/2000/svg">
<g clip-path="url(#clip0_1_1898)">
<path d="M29.0416 27.3252L21.9016 19.8992C23.7374 17.7169 24.7433 14.971 24.7433 12.1125C24.7433 5.43377 19.3095 0 12.6308 0C5.95208 0 0.518311 5.43377 0.518311 12.1125C0.518311 18.7912 5.95208 24.225 12.6308 24.225C15.1381 24.225 17.5274 23.4687 19.5702 22.0331L26.7645 29.5155C27.0652 29.8278 27.4697 30 27.9031 30C28.3133 30 28.7025 29.8436 28.9979 29.5592C29.6257 28.9552 29.6457 27.9535 29.0416 27.3252ZM12.6308 3.15978C17.5674 3.15978 21.5835 7.17586 21.5835 12.1125C21.5835 17.0491 17.5674 21.0652 12.6308 21.0652C7.69417 21.0652 3.67809 17.0491 3.67809 12.1125C3.67809 7.17586 7.69417 3.15978 12.6308 3.15978Z" fill="white"/>
</g>
<defs>
<clipPath id="clip0_1_1898">
<rect width="30" height="30" fill="white"/>
</clipPath>
</defs>
</svg>
