<svg width="30" height="30" viewBox="0 0 30 30" fill="none" xmlns="http://www.w3.org/2000/svg">
<path d="M22.0198 1.42822H7.96975C6.64913 1.42822 5.57471 2.50265 5.57471 3.82327V28.572H7.01169V8.51351H22.9778V28.5717H24.4148V3.82305C24.4149 2.50254 23.3405 1.42822 22.0198 1.42822ZM10.34 5.81946H8.58362V4.38237H10.34V5.81946ZM13.2938 5.81946H11.5373V4.38237H13.2938V5.81946Z" fill="white"/>
<path d="M16.6309 15.3192H15.5915C16.5804 15.0557 17.3102 14.1564 17.3102 13.0842C17.3102 11.8053 16.2736 10.7687 14.9949 10.7687C13.716 10.7687 12.6794 11.8053 12.6794 13.0842C12.6794 14.1564 13.409 15.0557 14.3983 15.3192H13.3584C12.4325 15.3192 11.6819 16.0701 11.6819 16.9958V22.1852H13.1089V28.2724H16.8808V22.1852H18.3075V16.9958C18.3074 16.0701 17.557 15.3192 16.6309 15.3192Z" fill="white"/>
<path d="M25.947 18.8122L28.9138 20.8898L29.7379 19.7129L26.7712 17.6353L25.947 18.8122Z" fill="white"/>
<path d="M30 14.6294H26.3779V16.0664H30V14.6294Z" fill="white"/>
<path d="M29.7277 11.0087L28.9033 9.8313L25.9356 11.9093L26.76 13.0866L29.7277 11.0087Z" fill="white"/>
<path d="M0.262052 19.7123L1.08618 20.8892L4.05297 18.8116L3.22884 17.6347L0.262052 19.7123Z" fill="white"/>
<path d="M3.62223 14.6294H0V16.0664H3.62223V14.6294Z" fill="white"/>
<path d="M0.273442 11.0074L3.24023 13.085L4.06449 11.9079L1.0977 9.83034L0.273442 11.0074Z" fill="white"/>
</svg>
