<svg width="100" height="100" viewBox="0 0 100 100" fill="none" xmlns="http://www.w3.org/2000/svg">
<path d="M45.3125 71.875C45.3125 62.3984 37.6016 54.6875 28.125 54.6875C18.6484 54.6875 10.9375 62.3984 10.9375 71.875C10.9375 81.3516 18.6484 89.0625 28.125 89.0625C37.6016 89.0625 45.3125 81.3516 45.3125 71.875ZM28.125 85.9375C20.3719 85.9375 14.0625 79.6297 14.0625 71.875C14.0625 64.1203 20.3719 57.8125 28.125 57.8125C35.8781 57.8125 42.1875 64.1203 42.1875 71.875C42.1875 79.6297 35.8781 85.9375 28.125 85.9375Z" fill="white"/>
<path d="M17.1875 70.3125H20.3125V73.4375H17.1875V70.3125Z" fill="white"/>
<path d="M35.9375 70.3125H39.0625V73.4375H35.9375V70.3125Z" fill="white"/>
<path d="M95.3125 67.1875C95.3125 57.5016 88.9797 49.2781 80.2406 46.4094C83.6641 44.1781 85.9375 40.3203 85.9375 35.9375C85.9375 29.0453 80.3297 23.4375 73.4375 23.4375C66.5453 23.4375 60.9375 29.0453 60.9375 35.9375C60.9375 40.3187 63.2078 44.1734 66.6281 46.4062C63.4016 47.4594 60.4391 49.25 57.9687 51.7203C54.3437 55.3453 52.15 60.0187 51.6656 65.0547L50.4016 64.6328C50.0203 63.4531 49.5516 62.3172 49.0016 61.2359L51.0187 57.2031L50 56.1844V45.3125C50 35.6266 43.6672 27.4031 34.9281 24.5344C38.3516 22.3031 40.625 18.4453 40.625 14.0625C40.625 7.17031 35.0172 1.5625 28.125 1.5625C21.2328 1.5625 15.625 7.17031 15.625 14.0625C15.625 18.4453 17.8984 22.3031 21.3219 24.5344C12.5828 27.4031 6.25 35.6266 6.25 45.3125V56.1844L5.23125 57.2031L7.24844 61.2359C6.69844 62.3156 6.22969 63.4531 5.84844 64.6328L1.5625 66.0609V77.6875L5.84844 79.1156C6.22969 80.2953 6.69844 81.4313 7.24844 82.5125L5.23125 86.5469L13.4531 94.7688L17.4859 92.7531C18.5656 93.3031 19.7031 93.7703 20.8828 94.1531L22.3109 98.4375H28.125H33.9391H95.3125V76.5625C97.0359 76.5625 98.4375 75.1609 98.4375 73.4375V70.3125C98.4375 68.5891 97.0359 67.1875 95.3125 67.1875ZM92.1875 67.1875H87.5V60.9375H84.375V67.1875H76.1297L84.6828 52.2187C89.2297 55.6437 92.1875 61.0703 92.1875 67.1875ZM73.4375 48.4375C74.6953 48.4375 75.9234 48.5672 77.1125 48.8031L73.4375 52.4781L69.7562 48.7969C70.9563 48.5594 72.1875 48.4375 73.4375 48.4375ZM77.9094 57.775L75.5312 54.8031L80.5047 49.8297C81.0297 50.0438 81.5406 50.2844 82.0406 50.5453L77.9094 57.775ZM71.3438 54.8031L68.9656 57.775L64.8266 50.5312C65.3281 50.2719 65.8375 50.0297 66.3594 49.8172L71.3438 54.8031ZM73.4375 57.1891L76.2406 60.6938L73.4375 65.6016L70.6344 60.6938L73.4375 57.1891ZM64.0625 35.9375C64.0625 30.7672 68.2672 26.5625 73.4375 26.5625C78.6078 26.5625 82.8125 30.7672 82.8125 35.9375C82.8125 41.1078 78.6078 45.3125 73.4375 45.3125C68.2672 45.3125 64.0625 41.1078 64.0625 35.9375ZM60.1781 53.9297C60.8078 53.3 61.4875 52.7391 62.1875 52.2109L70.7453 67.1875H62.5V60.9375H59.375V67.1875H54.6875C54.6875 62.1797 56.6375 57.4703 60.1781 53.9297ZM46.875 45.3125V53.0594L42.7969 48.9797L42.1875 49.2859V39.0625H39.0625V50.8484L38.7641 50.9984C37.6844 50.4484 36.5469 49.9813 35.3672 49.5984L33.9391 45.3125H30.8172L39.3703 30.3438C43.9172 33.7687 46.875 39.1953 46.875 45.3125ZM19.5219 28.6703C21.0172 27.8938 22.6219 27.3031 24.3172 26.9516L22.9516 34.6734L19.5219 28.6703ZM27.5562 26.5906C27.7469 26.5859 27.9328 26.5625 28.125 26.5625C28.3172 26.5625 28.5031 26.5859 28.6938 26.5906L30.8734 38.9141L28.125 43.7266L25.3766 38.9156L27.5562 26.5906ZM33.2969 34.6734L31.9313 26.9516C33.6266 27.3031 35.2312 27.8938 36.7266 28.6703L33.2969 34.6734ZM18.75 14.0625C18.75 8.89219 22.9547 4.6875 28.125 4.6875C33.2953 4.6875 37.5 8.89219 37.5 14.0625C37.5 19.2328 33.2953 23.4375 28.125 23.4375C22.9547 23.4375 18.75 19.2328 18.75 14.0625ZM9.375 45.3125C9.375 39.1953 12.3328 33.7687 16.8797 30.3438L25.4328 45.3125H22.3109L20.8813 49.5984C19.7016 49.9797 18.5656 50.4484 17.4844 50.9984L17.1875 50.8484V39.0625H14.0625V49.2859L13.4531 48.9813L9.375 53.0594V45.3125ZM28.125 95.3125H24.5641L23.3313 91.6172L22.5391 91.3891C21.0266 90.9578 19.5891 90.3656 18.2672 89.6281L17.5469 89.2266L14.0687 90.9641L9.03281 85.9281L10.7703 82.45L10.3688 81.7297C9.63281 80.4062 9.03906 78.9688 8.60781 77.4594L8.38125 76.6656L4.6875 75.4359V68.3125L8.38281 67.0812L8.60938 66.2875C9.04063 64.7766 9.63438 63.3391 10.3703 62.0172L10.7719 61.2969L9.03438 57.8188L14.0703 52.7812L17.5469 54.5203L18.2672 54.1188C19.5891 53.3813 21.0266 52.7891 22.5391 52.3578L23.3313 52.1297L24.5641 48.4375H31.6875L32.9203 52.1328L33.7125 52.3609C35.225 52.7922 36.6625 53.3844 37.9844 54.1219L38.7047 54.5234L42.1813 52.7844L47.2172 57.8219L45.4797 61.3L45.8813 62.0203C46.6172 63.3438 47.2109 64.7812 47.6422 66.2906L47.8687 67.0844L51.5625 68.3141V68.75V75.4359L47.8672 76.6672L47.6406 77.4609C47.2094 78.9719 46.6156 80.4094 45.8797 81.7312L45.4781 82.4516L47.2156 85.9297L42.1797 90.9656L38.7016 89.2281L37.9813 89.6297C36.6594 90.3672 35.2219 90.9594 33.7094 91.3906L32.9172 91.6188L31.6859 95.3125H28.125ZM92.1875 95.3125H34.9813L35.3687 94.1516C36.5484 93.7703 37.6859 93.3016 38.7656 92.7516L42.7984 94.7672L51.0203 86.5453L49.0031 82.5125C49.5531 81.4328 50.0219 80.2953 50.4031 79.1156L54.6875 77.6891V76.5625H92.1875V95.3125ZM95.3125 73.4375H54.6875V70.3125H95.3125V73.4375Z" fill="white"/>
<path d="M85.9375 89.0625H89.0625V92.1875H85.9375V89.0625Z" fill="white"/>
<path d="M79.6875 89.0625H82.8125V92.1875H79.6875V89.0625Z" fill="white"/>
<path d="M73.4375 89.0625H76.5625V92.1875H73.4375V89.0625Z" fill="white"/>
</svg>
