<svg width="30" height="30" viewBox="0 0 30 30" fill="none" xmlns="http://www.w3.org/2000/svg">
<g clip-path="url(#clip0_1_1857)">
<path d="M5.25 3.25C4.0095 3.25 3 4.2595 3 5.5C3 6.7405 4.0095 7.75 5.25 7.75C6.4905 7.75 7.5 6.7405 7.5 5.5C7.5 4.2595 6.4905 3.25 5.25 3.25ZM5.25 6.75C4.561 6.75 4 6.1895 4 5.5C4 4.8105 4.561 4.25 5.25 4.25C5.939 4.25 6.5 4.8105 6.5 5.5C6.5 6.1895 5.939 6.75 5.25 6.75Z" fill="#FFFDFD"/>
<path d="M25 5.25C25.2761 5.25 25.5 5.02614 25.5 4.75C25.5 4.47386 25.2761 4.25 25 4.25C24.7239 4.25 24.5 4.47386 24.5 4.75C24.5 5.02614 24.7239 5.25 25 5.25Z" fill="#FFFDFD"/>
<path d="M23 5.25C23.2761 5.25 23.5 5.02614 23.5 4.75C23.5 4.47386 23.2761 4.25 23 4.25C22.7239 4.25 22.5 4.47386 22.5 4.75C22.5 5.02614 22.7239 5.25 23 5.25Z" fill="#FFFDFD"/>
<path d="M26 6.75C26.2761 6.75 26.5 6.52614 26.5 6.25C26.5 5.97386 26.2761 5.75 26 5.75C25.7239 5.75 25.5 5.97386 25.5 6.25C25.5 6.52614 25.7239 6.75 26 6.75Z" fill="#FFFDFD"/>
<path d="M24 6.75C24.2761 6.75 24.5 6.52614 24.5 6.25C24.5 5.97386 24.2761 5.75 24 5.75C23.7239 5.75 23.5 5.97386 23.5 6.25C23.5 6.52614 23.7239 6.75 24 6.75Z" fill="#FFFDFD"/>
<path d="M21 5.25C21.2761 5.25 21.5 5.02614 21.5 4.75C21.5 4.47386 21.2761 4.25 21 4.25C20.7239 4.25 20.5 4.47386 20.5 4.75C20.5 5.02614 20.7239 5.25 21 5.25Z" fill="#FFFDFD"/>
<path d="M22 6.75C22.2761 6.75 22.5 6.52614 22.5 6.25C22.5 5.97386 22.2761 5.75 22 5.75C21.7239 5.75 21.5 5.97386 21.5 6.25C21.5 6.52614 21.7239 6.75 22 6.75Z" fill="#FFFDFD"/>
<path d="M19 5.25C19.2761 5.25 19.5 5.02614 19.5 4.75C19.5 4.47386 19.2761 4.25 19 4.25C18.7239 4.25 18.5 4.47386 18.5 4.75C18.5 5.02614 18.7239 5.25 19 5.25Z" fill="#FFFDFD"/>
<path d="M20 6.75C20.2761 6.75 20.5 6.52614 20.5 6.25C20.5 5.97386 20.2761 5.75 20 5.75C19.7239 5.75 19.5 5.97386 19.5 6.25C19.5 6.52614 19.7239 6.75 20 6.75Z" fill="#FFFDFD"/>
<path d="M17 5.25C17.2761 5.25 17.5 5.02614 17.5 4.75C17.5 4.47386 17.2761 4.25 17 4.25C16.7239 4.25 16.5 4.47386 16.5 4.75C16.5 5.02614 16.7239 5.25 17 5.25Z" fill="#FFFDFD"/>
<path d="M18 6.75C18.2761 6.75 18.5 6.52614 18.5 6.25C18.5 5.97386 18.2761 5.75 18 5.75C17.7239 5.75 17.5 5.97386 17.5 6.25C17.5 6.52614 17.7239 6.75 18 6.75Z" fill="#FFFDFD"/>
<path d="M30 8.446V2.554C30 1.2835 28.9665 0.25 27.696 0.25H2.304C1.0335 0.25 0 1.2835 0 2.554V8.4455C0 9.18 0.3515 9.8275 0.8885 10.2495C0.3515 10.672 0 11.32 0 12.054V17.9455C0 18.68 0.3515 19.3275 0.8885 19.7495C0.3515 20.172 0 20.82 0 21.554V27.4455C0 28.7165 1.0335 29.75 2.304 29.75H27.6955C28.966 29.75 29.9995 28.7165 29.9995 27.446V21.554C29.9995 20.8195 29.648 20.172 29.111 19.75C29.6485 19.328 30 18.68 30 17.946V12.054C30 11.3195 29.6485 10.672 29.1115 10.25C29.6485 9.828 30 9.18 30 8.446ZM29 21.554V27.4455C29 28.1645 28.415 28.7495 27.696 28.7495H2.304C1.585 28.75 1 28.165 1 27.446V21.554C1 20.835 1.585 20.25 2.304 20.25H27.6955C28.415 20.25 29 20.835 29 21.554ZM29 12.054V17.9455C29 18.6645 28.415 19.2495 27.696 19.2495H2.304C1.585 19.25 1 18.665 1 17.946V12.054C1 11.335 1.585 10.75 2.304 10.75H27.6955C28.415 10.75 29 11.335 29 12.054ZM2.304 9.75C1.585 9.75 1 9.165 1 8.446V2.554C1 1.835 1.585 1.25 2.304 1.25H27.6955C28.415 1.25 29 1.835 29 2.554V8.4455C29 9.1645 28.415 9.7495 27.696 9.7495H2.304V9.75Z" fill="#FFFDFD"/>
<path d="M5.25 17.25C6.4905 17.25 7.5 16.2405 7.5 15C7.5 13.7595 6.4905 12.75 5.25 12.75C4.0095 12.75 3 13.7595 3 15C3 16.2405 4.0095 17.25 5.25 17.25ZM5.25 13.75C5.939 13.75 6.5 14.3105 6.5 15C6.5 15.6895 5.939 16.25 5.25 16.25C4.561 16.25 4 15.6895 4 15C4 14.3105 4.561 13.75 5.25 13.75Z" fill="#FFFDFD"/>
<path d="M25 14.75C25.2761 14.75 25.5 14.5261 25.5 14.25C25.5 13.9739 25.2761 13.75 25 13.75C24.7239 13.75 24.5 13.9739 24.5 14.25C24.5 14.5261 24.7239 14.75 25 14.75Z" fill="#FFFDFD"/>
<path d="M23 14.75C23.2761 14.75 23.5 14.5261 23.5 14.25C23.5 13.9739 23.2761 13.75 23 13.75C22.7239 13.75 22.5 13.9739 22.5 14.25C22.5 14.5261 22.7239 14.75 23 14.75Z" fill="#FFFDFD"/>
<path d="M26 16.25C26.2761 16.25 26.5 16.0261 26.5 15.75C26.5 15.4739 26.2761 15.25 26 15.25C25.7239 15.25 25.5 15.4739 25.5 15.75C25.5 16.0261 25.7239 16.25 26 16.25Z" fill="#FFFDFD"/>
<path d="M24 16.25C24.2761 16.25 24.5 16.0261 24.5 15.75C24.5 15.4739 24.2761 15.25 24 15.25C23.7239 15.25 23.5 15.4739 23.5 15.75C23.5 16.0261 23.7239 16.25 24 16.25Z" fill="#FFFDFD"/>
<path d="M21 14.75C21.2761 14.75 21.5 14.5261 21.5 14.25C21.5 13.9739 21.2761 13.75 21 13.75C20.7239 13.75 20.5 13.9739 20.5 14.25C20.5 14.5261 20.7239 14.75 21 14.75Z" fill="#FFFDFD"/>
<path d="M22 16.25C22.2761 16.25 22.5 16.0261 22.5 15.75C22.5 15.4739 22.2761 15.25 22 15.25C21.7239 15.25 21.5 15.4739 21.5 15.75C21.5 16.0261 21.7239 16.25 22 16.25Z" fill="#FFFDFD"/>
<path d="M19 14.75C19.2761 14.75 19.5 14.5261 19.5 14.25C19.5 13.9739 19.2761 13.75 19 13.75C18.7239 13.75 18.5 13.9739 18.5 14.25C18.5 14.5261 18.7239 14.75 19 14.75Z" fill="#FFFDFD"/>
<path d="M20 16.25C20.2761 16.25 20.5 16.0261 20.5 15.75C20.5 15.4739 20.2761 15.25 20 15.25C19.7239 15.25 19.5 15.4739 19.5 15.75C19.5 16.0261 19.7239 16.25 20 16.25Z" fill="#FFFDFD"/>
<path d="M17 14.75C17.2761 14.75 17.5 14.5261 17.5 14.25C17.5 13.9739 17.2761 13.75 17 13.75C16.7239 13.75 16.5 13.9739 16.5 14.25C16.5 14.5261 16.7239 14.75 17 14.75Z" fill="#FFFDFD"/>
<path d="M18 16.25C18.2761 16.25 18.5 16.0261 18.5 15.75C18.5 15.4739 18.2761 15.25 18 15.25C17.7239 15.25 17.5 15.4739 17.5 15.75C17.5 16.0261 17.7239 16.25 18 16.25Z" fill="#FFFDFD"/>
<path d="M5.25 26.75C6.4905 26.75 7.5 25.7405 7.5 24.5C7.5 23.2595 6.4905 22.25 5.25 22.25C4.0095 22.25 3 23.2595 3 24.5C3 25.7405 4.0095 26.75 5.25 26.75ZM5.25 23.25C5.939 23.25 6.5 23.8105 6.5 24.5C6.5 25.1895 5.939 25.75 5.25 25.75C4.561 25.75 4 25.1895 4 24.5C4 23.8105 4.561 23.25 5.25 23.25Z" fill="#FFFDFD"/>
<path d="M25 24.25C25.2761 24.25 25.5 24.0261 25.5 23.75C25.5 23.4739 25.2761 23.25 25 23.25C24.7239 23.25 24.5 23.4739 24.5 23.75C24.5 24.0261 24.7239 24.25 25 24.25Z" fill="#FFFDFD"/>
<path d="M23 24.25C23.2761 24.25 23.5 24.0261 23.5 23.75C23.5 23.4739 23.2761 23.25 23 23.25C22.7239 23.25 22.5 23.4739 22.5 23.75C22.5 24.0261 22.7239 24.25 23 24.25Z" fill="#FFFDFD"/>
<path d="M26 25.75C26.2761 25.75 26.5 25.5261 26.5 25.25C26.5 24.9739 26.2761 24.75 26 24.75C25.7239 24.75 25.5 24.9739 25.5 25.25C25.5 25.5261 25.7239 25.75 26 25.75Z" fill="#FFFDFD"/>
<path d="M24 25.75C24.2761 25.75 24.5 25.5261 24.5 25.25C24.5 24.9739 24.2761 24.75 24 24.75C23.7239 24.75 23.5 24.9739 23.5 25.25C23.5 25.5261 23.7239 25.75 24 25.75Z" fill="#FFFDFD"/>
<path d="M21 24.25C21.2761 24.25 21.5 24.0261 21.5 23.75C21.5 23.4739 21.2761 23.25 21 23.25C20.7239 23.25 20.5 23.4739 20.5 23.75C20.5 24.0261 20.7239 24.25 21 24.25Z" fill="#FFFDFD"/>
<path d="M22 25.75C22.2761 25.75 22.5 25.5261 22.5 25.25C22.5 24.9739 22.2761 24.75 22 24.75C21.7239 24.75 21.5 24.9739 21.5 25.25C21.5 25.5261 21.7239 25.75 22 25.75Z" fill="#FFFDFD"/>
<path d="M19 24.25C19.2761 24.25 19.5 24.0261 19.5 23.75C19.5 23.4739 19.2761 23.25 19 23.25C18.7239 23.25 18.5 23.4739 18.5 23.75C18.5 24.0261 18.7239 24.25 19 24.25Z" fill="#FFFDFD"/>
<path d="M20 25.75C20.2761 25.75 20.5 25.5261 20.5 25.25C20.5 24.9739 20.2761 24.75 20 24.75C19.7239 24.75 19.5 24.9739 19.5 25.25C19.5 25.5261 19.7239 25.75 20 25.75Z" fill="#FFFDFD"/>
<path d="M17 24.25C17.2761 24.25 17.5 24.0261 17.5 23.75C17.5 23.4739 17.2761 23.25 17 23.25C16.7239 23.25 16.5 23.4739 16.5 23.75C16.5 24.0261 16.7239 24.25 17 24.25Z" fill="#FFFDFD"/>
<path d="M18 25.75C18.2761 25.75 18.5 25.5261 18.5 25.25C18.5 24.9739 18.2761 24.75 18 24.75C17.7239 24.75 17.5 24.9739 17.5 25.25C17.5 25.5261 17.7239 25.75 18 25.75Z" fill="#FFFDFD"/>
</g>
<defs>
<clipPath id="clip0_1_1857">
<rect width="30" height="30" fill="white"/>
</clipPath>
</defs>
</svg>
