<svg width="30" height="30" viewBox="0 0 30 30" fill="none" xmlns="http://www.w3.org/2000/svg">
<g clip-path="url(#clip0_1_1934)">
<path d="M1.97842 25.5473H0.937588C0.451772 25.5473 5.85956e-05 25.9404 5.85956e-05 26.4262C5.85956e-05 26.912 0.451772 27.3051 0.937588 27.3051H1.97842C2.34248 28.326 3.30895 29.063 4.45332 29.063C5.59769 29.063 6.56417 28.326 6.92822 27.3051H10.7678C11.1318 28.326 12.0983 29.063 13.2427 29.063C14.387 29.063 15.3535 28.326 15.7176 27.3051H19.5571C19.9212 28.326 20.8876 29.063 22.032 29.063C23.1764 29.063 24.1428 28.326 24.5069 27.3051H27.0003L26.7427 27.5627C26.3994 27.906 26.3994 28.4622 26.7427 28.8055C26.9144 28.9772 27.1393 29.0631 27.3641 29.0631C27.589 29.0631 27.8139 28.9772 27.9855 28.8055L29.7424 27.0487C29.8239 26.9674 29.8886 26.87 29.9333 26.7618C30.0221 26.547 30.0221 26.3054 29.9333 26.0906C29.8885 25.9825 29.8239 25.8851 29.7424 25.8038L27.9855 24.0469C27.6422 23.7036 27.086 23.7036 26.7427 24.0469C26.3994 24.3902 26.3994 24.9465 26.7427 25.2898L27.0002 25.5473H24.5068C24.2413 24.8027 23.6555 24.2169 22.9109 23.9514V17.9074C23.7385 16.6911 26.4266 12.5916 26.4266 10.6054C26.4266 8.1823 24.455 6.21074 22.0319 6.21074C19.6088 6.21074 17.6373 8.1823 17.6373 10.6054C17.6373 12.5916 20.3253 16.6911 21.153 17.9074V23.9513C20.4084 24.2169 19.8226 24.8026 19.557 25.5473H15.7175C15.4519 24.8026 14.8662 24.2169 14.1215 23.9513V12.6337C14.9492 11.4175 17.6373 7.31796 17.6373 5.3318C17.6373 2.9087 15.6657 0.937134 13.2426 0.937134C10.8195 0.937134 8.84793 2.9087 8.84793 5.3318C8.84793 7.31796 11.536 11.4175 12.3637 12.6337V23.9513C11.619 24.2169 11.0333 24.8026 10.7677 25.5473H6.92817C6.66261 24.8026 6.07683 24.2169 5.3322 23.9513V21.4231C6.15986 20.2068 8.84793 16.1073 8.84793 14.1211C8.84793 11.698 6.87637 9.72647 4.45326 9.72647C2.03016 9.72647 0 11.698 0 14.1211C0 16.1073 2.74667 20.2068 3.57433 21.4231V23.9513C2.82976 24.2169 2.24398 24.8026 1.97842 25.5473ZM22.032 9.72647C22.5174 9.72647 22.9109 10.12 22.9109 10.6054C22.9109 11.0908 22.5174 11.4843 22.032 11.4843C21.5466 11.4843 21.1531 11.0908 21.1531 10.6054C21.1531 10.12 21.5466 9.72647 22.032 9.72647ZM13.2427 4.45287C13.7281 4.45287 14.1216 4.8464 14.1216 5.3318C14.1216 5.81721 13.7281 6.21074 13.2427 6.21074C12.7573 6.21074 12.3637 5.81721 12.3637 5.3318C12.3637 4.8464 12.7573 4.45287 13.2427 4.45287ZM4.45332 13.2422C4.93873 13.2422 5.33226 13.6357 5.33226 14.1211C5.33226 14.6065 4.93873 15.0001 4.45332 15.0001C3.96792 15.0001 3.57439 14.6065 3.57439 14.1211C3.57439 13.6357 3.96792 13.2422 4.45332 13.2422Z" fill="white"/>
</g>
<defs>
<clipPath id="clip0_1_1934">
<rect width="30" height="30" fill="white"/>
</clipPath>
</defs>
</svg>
